<mxfile host="65bd71144e">
    <diagram id="DGizMAQsi99y3Vm7XnIf" name="BookMark &amp; History Schema">
        <mxGraphModel dx="1214" dy="631" grid="0" gridSize="10" guides="1" tooltips="1" connect="1" arrows="1" fold="1" page="0" pageScale="1" pageWidth="850" pageHeight="1100" math="0" shadow="0">
            <root>
                <mxCell id="0"/>
                <mxCell id="1" parent="0"/>
                <mxCell id="GUweP1HjcUWxZI6Hpu6D-1" value="Bookmark &amp;amp; History are stored in &lt;br style=&quot;font-size: 16px;&quot;&gt;serverless database sqlite3 &lt;br style=&quot;font-size: 16px;&quot;&gt;in client local machine" style="text;html=1;align=center;verticalAlign=middle;resizable=0;points=[];autosize=1;strokeColor=#006EAF;fillColor=#1ba1e2;fontSize=16;fontColor=#ffffff;" parent="1" vertex="1">
                    <mxGeometry x="501" y="83" width="253" height="70" as="geometry"/>
                </mxCell>
                <mxCell id="GUweP1HjcUWxZI6Hpu6D-145" value="" style="group;flipH=1;" parent="1" vertex="1" connectable="0">
                    <mxGeometry x="246" y="79" width="120" height="119" as="geometry"/>
                </mxCell>
                <mxCell id="GUweP1HjcUWxZI6Hpu6D-136" value="" style="shape=table;startSize=0;container=1;collapsible=0;childLayout=tableLayout;fontSize=13;" parent="GUweP1HjcUWxZI6Hpu6D-145" vertex="1">
                    <mxGeometry y="39" width="120" height="80" as="geometry"/>
                </mxCell>
                <mxCell id="GUweP1HjcUWxZI6Hpu6D-137" value="" style="shape=tableRow;horizontal=0;startSize=0;swimlaneHead=0;swimlaneBody=0;top=0;left=0;bottom=0;right=0;collapsible=0;dropTarget=0;fillColor=none;points=[[0,0.5],[1,0.5]];portConstraint=eastwest;fontSize=13;" parent="GUweP1HjcUWxZI6Hpu6D-136" vertex="1">
                    <mxGeometry width="120" height="40" as="geometry"/>
                </mxCell>
                <mxCell id="GUweP1HjcUWxZI6Hpu6D-138" value="F" style="shape=partialRectangle;html=1;whiteSpace=wrap;connectable=0;overflow=hidden;fillColor=none;top=0;left=0;bottom=0;right=0;pointerEvents=1;fontSize=13;" parent="GUweP1HjcUWxZI6Hpu6D-137" vertex="1">
                    <mxGeometry width="60" height="40" as="geometry">
                        <mxRectangle width="60" height="40" as="alternateBounds"/>
                    </mxGeometry>
                </mxCell>
                <mxCell id="GUweP1HjcUWxZI6Hpu6D-139" value="Folder" style="shape=partialRectangle;html=1;whiteSpace=wrap;connectable=0;overflow=hidden;fillColor=none;top=0;left=0;bottom=0;right=0;pointerEvents=1;fontSize=13;" parent="GUweP1HjcUWxZI6Hpu6D-137" vertex="1">
                    <mxGeometry x="60" width="60" height="40" as="geometry">
                        <mxRectangle width="60" height="40" as="alternateBounds"/>
                    </mxGeometry>
                </mxCell>
                <mxCell id="GUweP1HjcUWxZI6Hpu6D-140" value="" style="shape=tableRow;horizontal=0;startSize=0;swimlaneHead=0;swimlaneBody=0;top=0;left=0;bottom=0;right=0;collapsible=0;dropTarget=0;fillColor=none;points=[[0,0.5],[1,0.5]];portConstraint=eastwest;fontSize=13;" parent="GUweP1HjcUWxZI6Hpu6D-136" vertex="1">
                    <mxGeometry y="40" width="120" height="40" as="geometry"/>
                </mxCell>
                <mxCell id="GUweP1HjcUWxZI6Hpu6D-141" value="S" style="shape=partialRectangle;html=1;whiteSpace=wrap;connectable=0;overflow=hidden;fillColor=none;top=0;left=0;bottom=0;right=0;pointerEvents=1;fontSize=13;" parent="GUweP1HjcUWxZI6Hpu6D-140" vertex="1">
                    <mxGeometry width="60" height="40" as="geometry">
                        <mxRectangle width="60" height="40" as="alternateBounds"/>
                    </mxGeometry>
                </mxCell>
                <mxCell id="GUweP1HjcUWxZI6Hpu6D-142" value="Site" style="shape=partialRectangle;html=1;whiteSpace=wrap;connectable=0;overflow=hidden;fillColor=none;top=0;left=0;bottom=0;right=0;pointerEvents=1;fontSize=13;" parent="GUweP1HjcUWxZI6Hpu6D-140" vertex="1">
                    <mxGeometry x="60" width="60" height="40" as="geometry">
                        <mxRectangle width="60" height="40" as="alternateBounds"/>
                    </mxGeometry>
                </mxCell>
                <mxCell id="GUweP1HjcUWxZI6Hpu6D-144" value="BookMark Types" style="text;html=1;align=center;verticalAlign=middle;resizable=0;points=[];autosize=1;strokeColor=#6F0000;fillColor=#a20025;fontSize=13;fontColor=#ffffff;" parent="GUweP1HjcUWxZI6Hpu6D-145" vertex="1">
                    <mxGeometry x="2.5" width="115" height="28" as="geometry"/>
                </mxCell>
                <mxCell id="GUweP1HjcUWxZI6Hpu6D-146" value="" style="group;flipH=1;" parent="1" vertex="1" connectable="0">
                    <mxGeometry x="-2" y="228" width="300" height="250" as="geometry"/>
                </mxCell>
                <mxCell id="GUweP1HjcUWxZI6Hpu6D-94" value="" style="shape=table;startSize=0;container=1;collapsible=0;childLayout=tableLayout;fontSize=13;" parent="GUweP1HjcUWxZI6Hpu6D-146" vertex="1">
                    <mxGeometry y="50" width="300" height="200" as="geometry"/>
                </mxCell>
                <mxCell id="GUweP1HjcUWxZI6Hpu6D-95" value="" style="shape=tableRow;horizontal=0;startSize=0;swimlaneHead=0;swimlaneBody=0;top=0;left=0;bottom=0;right=0;collapsible=0;dropTarget=0;fillColor=none;points=[[0,0.5],[1,0.5]];portConstraint=eastwest;fontSize=13;" parent="GUweP1HjcUWxZI6Hpu6D-94" vertex="1">
                    <mxGeometry width="300" height="40" as="geometry"/>
                </mxCell>
                <mxCell id="GUweP1HjcUWxZI6Hpu6D-96" value="pk" style="shape=partialRectangle;html=1;whiteSpace=wrap;connectable=0;overflow=hidden;fillColor=none;top=0;left=0;bottom=0;right=0;pointerEvents=1;fontSize=13;" parent="GUweP1HjcUWxZI6Hpu6D-95" vertex="1">
                    <mxGeometry width="40" height="40" as="geometry">
                        <mxRectangle width="40" height="40" as="alternateBounds"/>
                    </mxGeometry>
                </mxCell>
                <mxCell id="GUweP1HjcUWxZI6Hpu6D-97" value="ParentId" style="shape=partialRectangle;html=1;whiteSpace=wrap;connectable=0;overflow=hidden;fillColor=none;top=0;left=0;bottom=0;right=0;pointerEvents=1;fontSize=13;" parent="GUweP1HjcUWxZI6Hpu6D-95" vertex="1">
                    <mxGeometry x="40" width="60" height="40" as="geometry">
                        <mxRectangle width="60" height="40" as="alternateBounds"/>
                    </mxGeometry>
                </mxCell>
                <mxCell id="GUweP1HjcUWxZI6Hpu6D-98" value="title" style="shape=partialRectangle;html=1;whiteSpace=wrap;connectable=0;overflow=hidden;fillColor=none;top=0;left=0;bottom=0;right=0;pointerEvents=1;fontSize=13;" parent="GUweP1HjcUWxZI6Hpu6D-95" vertex="1">
                    <mxGeometry x="100" width="80" height="40" as="geometry">
                        <mxRectangle width="80" height="40" as="alternateBounds"/>
                    </mxGeometry>
                </mxCell>
                <mxCell id="GUweP1HjcUWxZI6Hpu6D-99" value="url" style="shape=partialRectangle;html=1;whiteSpace=wrap;connectable=0;overflow=hidden;fillColor=none;top=0;left=0;bottom=0;right=0;pointerEvents=1;fontSize=13;" parent="GUweP1HjcUWxZI6Hpu6D-95" vertex="1">
                    <mxGeometry x="180" width="80" height="40" as="geometry">
                        <mxRectangle width="80" height="40" as="alternateBounds"/>
                    </mxGeometry>
                </mxCell>
                <mxCell id="GUweP1HjcUWxZI6Hpu6D-120" value="type" style="shape=partialRectangle;html=1;whiteSpace=wrap;connectable=0;overflow=hidden;fillColor=none;top=0;left=0;bottom=0;right=0;pointerEvents=1;fontSize=13;" parent="GUweP1HjcUWxZI6Hpu6D-95" vertex="1">
                    <mxGeometry x="260" width="40" height="40" as="geometry">
                        <mxRectangle width="40" height="40" as="alternateBounds"/>
                    </mxGeometry>
                </mxCell>
                <mxCell id="GUweP1HjcUWxZI6Hpu6D-100" value="" style="shape=tableRow;horizontal=0;startSize=0;swimlaneHead=0;swimlaneBody=0;top=0;left=0;bottom=0;right=0;collapsible=0;dropTarget=0;fillColor=none;points=[[0,0.5],[1,0.5]];portConstraint=eastwest;fontSize=13;" parent="GUweP1HjcUWxZI6Hpu6D-94" vertex="1">
                    <mxGeometry y="40" width="300" height="40" as="geometry"/>
                </mxCell>
                <mxCell id="GUweP1HjcUWxZI6Hpu6D-101" value="5" style="shape=partialRectangle;html=1;whiteSpace=wrap;connectable=0;overflow=hidden;fillColor=none;top=0;left=0;bottom=0;right=0;pointerEvents=1;fontSize=13;" parent="GUweP1HjcUWxZI6Hpu6D-100" vertex="1">
                    <mxGeometry width="40" height="40" as="geometry">
                        <mxRectangle width="40" height="40" as="alternateBounds"/>
                    </mxGeometry>
                </mxCell>
                <mxCell id="GUweP1HjcUWxZI6Hpu6D-102" value="0" style="shape=partialRectangle;html=1;whiteSpace=wrap;connectable=0;overflow=hidden;fillColor=none;top=0;left=0;bottom=0;right=0;pointerEvents=1;fontSize=13;" parent="GUweP1HjcUWxZI6Hpu6D-100" vertex="1">
                    <mxGeometry x="40" width="60" height="40" as="geometry">
                        <mxRectangle width="60" height="40" as="alternateBounds"/>
                    </mxGeometry>
                </mxCell>
                <mxCell id="GUweP1HjcUWxZI6Hpu6D-103" value="Web" style="shape=partialRectangle;html=1;whiteSpace=wrap;connectable=0;overflow=hidden;fillColor=none;top=0;left=0;bottom=0;right=0;pointerEvents=1;fontSize=13;" parent="GUweP1HjcUWxZI6Hpu6D-100" vertex="1">
                    <mxGeometry x="100" width="80" height="40" as="geometry">
                        <mxRectangle width="80" height="40" as="alternateBounds"/>
                    </mxGeometry>
                </mxCell>
                <mxCell id="GUweP1HjcUWxZI6Hpu6D-104" value="NULL" style="shape=partialRectangle;html=1;whiteSpace=wrap;connectable=0;overflow=hidden;fillColor=none;top=0;left=0;bottom=0;right=0;pointerEvents=1;fontSize=13;" parent="GUweP1HjcUWxZI6Hpu6D-100" vertex="1">
                    <mxGeometry x="180" width="80" height="40" as="geometry">
                        <mxRectangle width="80" height="40" as="alternateBounds"/>
                    </mxGeometry>
                </mxCell>
                <mxCell id="GUweP1HjcUWxZI6Hpu6D-121" value="F" style="shape=partialRectangle;html=1;whiteSpace=wrap;connectable=0;overflow=hidden;fillColor=none;top=0;left=0;bottom=0;right=0;pointerEvents=1;fontSize=13;" parent="GUweP1HjcUWxZI6Hpu6D-100" vertex="1">
                    <mxGeometry x="260" width="40" height="40" as="geometry">
                        <mxRectangle width="40" height="40" as="alternateBounds"/>
                    </mxGeometry>
                </mxCell>
                <mxCell id="GUweP1HjcUWxZI6Hpu6D-105" value="" style="shape=tableRow;horizontal=0;startSize=0;swimlaneHead=0;swimlaneBody=0;top=0;left=0;bottom=0;right=0;collapsible=0;dropTarget=0;fillColor=none;points=[[0,0.5],[1,0.5]];portConstraint=eastwest;fontSize=13;" parent="GUweP1HjcUWxZI6Hpu6D-94" vertex="1">
                    <mxGeometry y="80" width="300" height="40" as="geometry"/>
                </mxCell>
                <mxCell id="GUweP1HjcUWxZI6Hpu6D-106" value="6" style="shape=partialRectangle;html=1;whiteSpace=wrap;connectable=0;overflow=hidden;fillColor=none;top=0;left=0;bottom=0;right=0;pointerEvents=1;fontSize=13;" parent="GUweP1HjcUWxZI6Hpu6D-105" vertex="1">
                    <mxGeometry width="40" height="40" as="geometry">
                        <mxRectangle width="40" height="40" as="alternateBounds"/>
                    </mxGeometry>
                </mxCell>
                <mxCell id="GUweP1HjcUWxZI6Hpu6D-107" value="5" style="shape=partialRectangle;html=1;whiteSpace=wrap;connectable=0;overflow=hidden;fillColor=none;top=0;left=0;bottom=0;right=0;pointerEvents=1;fontSize=13;" parent="GUweP1HjcUWxZI6Hpu6D-105" vertex="1">
                    <mxGeometry x="40" width="60" height="40" as="geometry">
                        <mxRectangle width="60" height="40" as="alternateBounds"/>
                    </mxGeometry>
                </mxCell>
                <mxCell id="GUweP1HjcUWxZI6Hpu6D-108" value="Security" style="shape=partialRectangle;html=1;whiteSpace=wrap;connectable=0;overflow=hidden;fillColor=none;top=0;left=0;bottom=0;right=0;pointerEvents=1;fontSize=13;" parent="GUweP1HjcUWxZI6Hpu6D-105" vertex="1">
                    <mxGeometry x="100" width="80" height="40" as="geometry">
                        <mxRectangle width="80" height="40" as="alternateBounds"/>
                    </mxGeometry>
                </mxCell>
                <mxCell id="GUweP1HjcUWxZI6Hpu6D-109" value="NULL" style="shape=partialRectangle;html=1;whiteSpace=wrap;connectable=0;overflow=hidden;fillColor=none;top=0;left=0;bottom=0;right=0;pointerEvents=1;fontSize=13;" parent="GUweP1HjcUWxZI6Hpu6D-105" vertex="1">
                    <mxGeometry x="180" width="80" height="40" as="geometry">
                        <mxRectangle width="80" height="40" as="alternateBounds"/>
                    </mxGeometry>
                </mxCell>
                <mxCell id="GUweP1HjcUWxZI6Hpu6D-122" value="F" style="shape=partialRectangle;html=1;whiteSpace=wrap;connectable=0;overflow=hidden;fillColor=none;top=0;left=0;bottom=0;right=0;pointerEvents=1;fontSize=13;" parent="GUweP1HjcUWxZI6Hpu6D-105" vertex="1">
                    <mxGeometry x="260" width="40" height="40" as="geometry">
                        <mxRectangle width="40" height="40" as="alternateBounds"/>
                    </mxGeometry>
                </mxCell>
                <mxCell id="GUweP1HjcUWxZI6Hpu6D-110" value="" style="shape=tableRow;horizontal=0;startSize=0;swimlaneHead=0;swimlaneBody=0;top=0;left=0;bottom=0;right=0;collapsible=0;dropTarget=0;fillColor=none;points=[[0,0.5],[1,0.5]];portConstraint=eastwest;fontSize=13;" parent="GUweP1HjcUWxZI6Hpu6D-94" vertex="1">
                    <mxGeometry y="120" width="300" height="40" as="geometry"/>
                </mxCell>
                <mxCell id="GUweP1HjcUWxZI6Hpu6D-111" value="7" style="shape=partialRectangle;html=1;whiteSpace=wrap;connectable=0;overflow=hidden;fillColor=none;top=0;left=0;bottom=0;right=0;pointerEvents=1;fontSize=13;" parent="GUweP1HjcUWxZI6Hpu6D-110" vertex="1">
                    <mxGeometry width="40" height="40" as="geometry">
                        <mxRectangle width="40" height="40" as="alternateBounds"/>
                    </mxGeometry>
                </mxCell>
                <mxCell id="GUweP1HjcUWxZI6Hpu6D-112" value="1" style="shape=partialRectangle;html=1;whiteSpace=wrap;connectable=0;overflow=hidden;fillColor=none;top=0;left=0;bottom=0;right=0;pointerEvents=1;fontSize=13;" parent="GUweP1HjcUWxZI6Hpu6D-110" vertex="1">
                    <mxGeometry x="40" width="60" height="40" as="geometry">
                        <mxRectangle width="60" height="40" as="alternateBounds"/>
                    </mxGeometry>
                </mxCell>
                <mxCell id="GUweP1HjcUWxZI6Hpu6D-113" value="Portal" style="shape=partialRectangle;html=1;whiteSpace=wrap;connectable=0;overflow=hidden;fillColor=none;top=0;left=0;bottom=0;right=0;pointerEvents=1;fontSize=13;" parent="GUweP1HjcUWxZI6Hpu6D-110" vertex="1">
                    <mxGeometry x="100" width="80" height="40" as="geometry">
                        <mxRectangle width="80" height="40" as="alternateBounds"/>
                    </mxGeometry>
                </mxCell>
                <mxCell id="GUweP1HjcUWxZI6Hpu6D-114" value="prtl.com" style="shape=partialRectangle;html=1;whiteSpace=wrap;connectable=0;overflow=hidden;fillColor=none;top=0;left=0;bottom=0;right=0;pointerEvents=1;fontSize=13;" parent="GUweP1HjcUWxZI6Hpu6D-110" vertex="1">
                    <mxGeometry x="180" width="80" height="40" as="geometry">
                        <mxRectangle width="80" height="40" as="alternateBounds"/>
                    </mxGeometry>
                </mxCell>
                <mxCell id="GUweP1HjcUWxZI6Hpu6D-123" value="S" style="shape=partialRectangle;html=1;whiteSpace=wrap;connectable=0;overflow=hidden;fillColor=none;top=0;left=0;bottom=0;right=0;pointerEvents=1;fontSize=13;" parent="GUweP1HjcUWxZI6Hpu6D-110" vertex="1">
                    <mxGeometry x="260" width="40" height="40" as="geometry">
                        <mxRectangle width="40" height="40" as="alternateBounds"/>
                    </mxGeometry>
                </mxCell>
                <mxCell id="GUweP1HjcUWxZI6Hpu6D-115" value="" style="shape=tableRow;horizontal=0;startSize=0;swimlaneHead=0;swimlaneBody=0;top=0;left=0;bottom=0;right=0;collapsible=0;dropTarget=0;fillColor=none;points=[[0,0.5],[1,0.5]];portConstraint=eastwest;fontSize=13;" parent="GUweP1HjcUWxZI6Hpu6D-94" vertex="1">
                    <mxGeometry y="160" width="300" height="40" as="geometry"/>
                </mxCell>
                <mxCell id="GUweP1HjcUWxZI6Hpu6D-116" value="8" style="shape=partialRectangle;html=1;whiteSpace=wrap;connectable=0;overflow=hidden;fillColor=none;top=0;left=0;bottom=0;right=0;pointerEvents=1;fontSize=13;" parent="GUweP1HjcUWxZI6Hpu6D-115" vertex="1">
                    <mxGeometry width="40" height="40" as="geometry">
                        <mxRectangle width="40" height="40" as="alternateBounds"/>
                    </mxGeometry>
                </mxCell>
                <mxCell id="GUweP1HjcUWxZI6Hpu6D-117" value="2" style="shape=partialRectangle;html=1;whiteSpace=wrap;connectable=0;overflow=hidden;fillColor=none;top=0;left=0;bottom=0;right=0;pointerEvents=1;fontSize=13;" parent="GUweP1HjcUWxZI6Hpu6D-115" vertex="1">
                    <mxGeometry x="40" width="60" height="40" as="geometry">
                        <mxRectangle width="60" height="40" as="alternateBounds"/>
                    </mxGeometry>
                </mxCell>
                <mxCell id="GUweP1HjcUWxZI6Hpu6D-118" value="watsup" style="shape=partialRectangle;html=1;whiteSpace=wrap;connectable=0;overflow=hidden;fillColor=none;top=0;left=0;bottom=0;right=0;pointerEvents=1;fontSize=13;" parent="GUweP1HjcUWxZI6Hpu6D-115" vertex="1">
                    <mxGeometry x="100" width="80" height="40" as="geometry">
                        <mxRectangle width="80" height="40" as="alternateBounds"/>
                    </mxGeometry>
                </mxCell>
                <mxCell id="GUweP1HjcUWxZI6Hpu6D-119" value="wtsup.com" style="shape=partialRectangle;html=1;whiteSpace=wrap;connectable=0;overflow=hidden;fillColor=none;top=0;left=0;bottom=0;right=0;pointerEvents=1;fontSize=13;" parent="GUweP1HjcUWxZI6Hpu6D-115" vertex="1">
                    <mxGeometry x="180" width="80" height="40" as="geometry">
                        <mxRectangle width="80" height="40" as="alternateBounds"/>
                    </mxGeometry>
                </mxCell>
                <mxCell id="GUweP1HjcUWxZI6Hpu6D-124" value="S" style="shape=partialRectangle;html=1;whiteSpace=wrap;connectable=0;overflow=hidden;fillColor=none;top=0;left=0;bottom=0;right=0;pointerEvents=1;fontSize=13;" parent="GUweP1HjcUWxZI6Hpu6D-115" vertex="1">
                    <mxGeometry x="260" width="40" height="40" as="geometry">
                        <mxRectangle width="40" height="40" as="alternateBounds"/>
                    </mxGeometry>
                </mxCell>
                <mxCell id="GUweP1HjcUWxZI6Hpu6D-143" value="BookMark Main Sqlite Schema" style="text;html=1;align=center;verticalAlign=middle;resizable=0;points=[];autosize=1;strokeColor=#6F0000;fillColor=#a20025;fontSize=13;fontColor=#ffffff;" parent="GUweP1HjcUWxZI6Hpu6D-146" vertex="1">
                    <mxGeometry x="52" y="1" width="196" height="28" as="geometry"/>
                </mxCell>
                <mxCell id="GUweP1HjcUWxZI6Hpu6D-147" value="" style="group;flipH=1;" parent="1" vertex="1" connectable="0">
                    <mxGeometry x="393" y="241" width="167" height="163" as="geometry"/>
                </mxCell>
                <mxCell id="GUweP1HjcUWxZI6Hpu6D-125" value="BookMark PreBuilt Folders" style="text;html=1;align=center;verticalAlign=middle;resizable=0;points=[];autosize=1;strokeColor=#6F0000;fillColor=#a20025;fontSize=13;fontColor=#ffffff;" parent="GUweP1HjcUWxZI6Hpu6D-147" vertex="1">
                    <mxGeometry x="-6" y="1" width="173" height="28" as="geometry"/>
                </mxCell>
                <mxCell id="GUweP1HjcUWxZI6Hpu6D-126" value="" style="shape=table;startSize=0;container=1;collapsible=0;childLayout=tableLayout;fontSize=13;" parent="GUweP1HjcUWxZI6Hpu6D-147" vertex="1">
                    <mxGeometry y="43" width="160" height="120" as="geometry"/>
                </mxCell>
                <mxCell id="GUweP1HjcUWxZI6Hpu6D-127" value="" style="shape=tableRow;horizontal=0;startSize=0;swimlaneHead=0;swimlaneBody=0;top=0;left=0;bottom=0;right=0;collapsible=0;dropTarget=0;fillColor=none;points=[[0,0.5],[1,0.5]];portConstraint=eastwest;fontSize=13;" parent="GUweP1HjcUWxZI6Hpu6D-126" vertex="1">
                    <mxGeometry width="160" height="40" as="geometry"/>
                </mxCell>
                <mxCell id="GUweP1HjcUWxZI6Hpu6D-128" value="0" style="shape=partialRectangle;html=1;whiteSpace=wrap;connectable=0;overflow=hidden;fillColor=none;top=0;left=0;bottom=0;right=0;pointerEvents=1;fontSize=13;" parent="GUweP1HjcUWxZI6Hpu6D-127" vertex="1">
                    <mxGeometry width="50" height="40" as="geometry">
                        <mxRectangle width="50" height="40" as="alternateBounds"/>
                    </mxGeometry>
                </mxCell>
                <mxCell id="GUweP1HjcUWxZI6Hpu6D-129" value="Bookmark Bar" style="shape=partialRectangle;html=1;whiteSpace=wrap;connectable=0;overflow=hidden;fillColor=none;top=0;left=0;bottom=0;right=0;pointerEvents=1;fontSize=13;" parent="GUweP1HjcUWxZI6Hpu6D-127" vertex="1">
                    <mxGeometry x="50" width="110" height="40" as="geometry">
                        <mxRectangle width="110" height="40" as="alternateBounds"/>
                    </mxGeometry>
                </mxCell>
                <mxCell id="GUweP1HjcUWxZI6Hpu6D-130" value="" style="shape=tableRow;horizontal=0;startSize=0;swimlaneHead=0;swimlaneBody=0;top=0;left=0;bottom=0;right=0;collapsible=0;dropTarget=0;fillColor=none;points=[[0,0.5],[1,0.5]];portConstraint=eastwest;fontSize=13;" parent="GUweP1HjcUWxZI6Hpu6D-126" vertex="1">
                    <mxGeometry y="40" width="160" height="40" as="geometry"/>
                </mxCell>
                <mxCell id="GUweP1HjcUWxZI6Hpu6D-131" value="1" style="shape=partialRectangle;html=1;whiteSpace=wrap;connectable=0;overflow=hidden;fillColor=none;top=0;left=0;bottom=0;right=0;pointerEvents=1;fontSize=13;" parent="GUweP1HjcUWxZI6Hpu6D-130" vertex="1">
                    <mxGeometry width="50" height="40" as="geometry">
                        <mxRectangle width="50" height="40" as="alternateBounds"/>
                    </mxGeometry>
                </mxCell>
                <mxCell id="GUweP1HjcUWxZI6Hpu6D-132" value="Mobile" style="shape=partialRectangle;html=1;whiteSpace=wrap;connectable=0;overflow=hidden;fillColor=none;top=0;left=0;bottom=0;right=0;pointerEvents=1;fontSize=13;" parent="GUweP1HjcUWxZI6Hpu6D-130" vertex="1">
                    <mxGeometry x="50" width="110" height="40" as="geometry">
                        <mxRectangle width="110" height="40" as="alternateBounds"/>
                    </mxGeometry>
                </mxCell>
                <mxCell id="GUweP1HjcUWxZI6Hpu6D-133" value="" style="shape=tableRow;horizontal=0;startSize=0;swimlaneHead=0;swimlaneBody=0;top=0;left=0;bottom=0;right=0;collapsible=0;dropTarget=0;fillColor=none;points=[[0,0.5],[1,0.5]];portConstraint=eastwest;fontSize=13;" parent="GUweP1HjcUWxZI6Hpu6D-126" vertex="1">
                    <mxGeometry y="80" width="160" height="40" as="geometry"/>
                </mxCell>
                <mxCell id="GUweP1HjcUWxZI6Hpu6D-134" value="2" style="shape=partialRectangle;html=1;whiteSpace=wrap;connectable=0;overflow=hidden;fillColor=none;top=0;left=0;bottom=0;right=0;pointerEvents=1;fontSize=13;" parent="GUweP1HjcUWxZI6Hpu6D-133" vertex="1">
                    <mxGeometry width="50" height="40" as="geometry">
                        <mxRectangle width="50" height="40" as="alternateBounds"/>
                    </mxGeometry>
                </mxCell>
                <mxCell id="GUweP1HjcUWxZI6Hpu6D-135" value="others" style="shape=partialRectangle;html=1;whiteSpace=wrap;connectable=0;overflow=hidden;fillColor=none;top=0;left=0;bottom=0;right=0;pointerEvents=1;fontSize=13;" parent="GUweP1HjcUWxZI6Hpu6D-133" vertex="1">
                    <mxGeometry x="50" width="110" height="40" as="geometry">
                        <mxRectangle width="110" height="40" as="alternateBounds"/>
                    </mxGeometry>
                </mxCell>
                <mxCell id="GUweP1HjcUWxZI6Hpu6D-148" value="BookMark Storage System" style="text;html=1;align=center;verticalAlign=middle;resizable=0;points=[];autosize=1;strokeColor=#BD7000;fillColor=#f0a30a;fontSize=16;fontColor=#000000;fontStyle=1" parent="1" vertex="1">
                    <mxGeometry x="8" y="20" width="221" height="31" as="geometry"/>
                </mxCell>
                <mxCell id="lwJfXjp9Ip3iOw9mxEJL-1" value="" style="group" parent="1" vertex="1" connectable="0">
                    <mxGeometry x="646" y="231" width="199.5" height="250" as="geometry"/>
                </mxCell>
                <mxCell id="lwJfXjp9Ip3iOw9mxEJL-2" value="" style="shape=table;startSize=0;container=1;collapsible=0;childLayout=tableLayout;fontSize=13;" parent="lwJfXjp9Ip3iOw9mxEJL-1" vertex="1">
                    <mxGeometry y="50" width="199.5" height="200" as="geometry"/>
                </mxCell>
                <mxCell id="lwJfXjp9Ip3iOw9mxEJL-3" value="" style="shape=tableRow;horizontal=0;startSize=0;swimlaneHead=0;swimlaneBody=0;top=0;left=0;bottom=0;right=0;collapsible=0;dropTarget=0;fillColor=none;points=[[0,0.5],[1,0.5]];portConstraint=eastwest;fontSize=13;" parent="lwJfXjp9Ip3iOw9mxEJL-2" vertex="1">
                    <mxGeometry width="199.5" height="40" as="geometry"/>
                </mxCell>
                <mxCell id="lwJfXjp9Ip3iOw9mxEJL-4" value="Created On" style="shape=partialRectangle;html=1;whiteSpace=wrap;connectable=0;overflow=hidden;fillColor=none;top=0;left=0;bottom=0;right=0;pointerEvents=1;fontSize=13;" parent="lwJfXjp9Ip3iOw9mxEJL-3" vertex="1">
                    <mxGeometry width="113" height="40" as="geometry">
                        <mxRectangle width="113" height="40" as="alternateBounds"/>
                    </mxGeometry>
                </mxCell>
                <mxCell id="lwJfXjp9Ip3iOw9mxEJL-5" value="url" style="shape=partialRectangle;html=1;whiteSpace=wrap;connectable=0;overflow=hidden;fillColor=none;top=0;left=0;bottom=0;right=0;pointerEvents=1;fontSize=13;" parent="lwJfXjp9Ip3iOw9mxEJL-3" vertex="1">
                    <mxGeometry x="113" width="87" height="40" as="geometry">
                        <mxRectangle width="87" height="40" as="alternateBounds"/>
                    </mxGeometry>
                </mxCell>
                <mxCell id="lwJfXjp9Ip3iOw9mxEJL-6" value="" style="shape=tableRow;horizontal=0;startSize=0;swimlaneHead=0;swimlaneBody=0;top=0;left=0;bottom=0;right=0;collapsible=0;dropTarget=0;fillColor=none;points=[[0,0.5],[1,0.5]];portConstraint=eastwest;fontSize=13;" parent="lwJfXjp9Ip3iOw9mxEJL-2" vertex="1">
                    <mxGeometry y="40" width="199.5" height="40" as="geometry"/>
                </mxCell>
                <mxCell id="lwJfXjp9Ip3iOw9mxEJL-7" value="1/2/2023 4:30" style="shape=partialRectangle;html=1;whiteSpace=wrap;connectable=0;overflow=hidden;fillColor=none;top=0;left=0;bottom=0;right=0;pointerEvents=1;fontSize=13;" parent="lwJfXjp9Ip3iOw9mxEJL-6" vertex="1">
                    <mxGeometry width="113" height="40" as="geometry">
                        <mxRectangle width="113" height="40" as="alternateBounds"/>
                    </mxGeometry>
                </mxCell>
                <mxCell id="lwJfXjp9Ip3iOw9mxEJL-8" value="master.com" style="shape=partialRectangle;html=1;whiteSpace=wrap;connectable=0;overflow=hidden;fillColor=none;top=0;left=0;bottom=0;right=0;pointerEvents=1;fontSize=13;" parent="lwJfXjp9Ip3iOw9mxEJL-6" vertex="1">
                    <mxGeometry x="113" width="87" height="40" as="geometry">
                        <mxRectangle width="87" height="40" as="alternateBounds"/>
                    </mxGeometry>
                </mxCell>
                <mxCell id="lwJfXjp9Ip3iOw9mxEJL-9" value="" style="shape=tableRow;horizontal=0;startSize=0;swimlaneHead=0;swimlaneBody=0;top=0;left=0;bottom=0;right=0;collapsible=0;dropTarget=0;fillColor=none;points=[[0,0.5],[1,0.5]];portConstraint=eastwest;fontSize=13;" parent="lwJfXjp9Ip3iOw9mxEJL-2" vertex="1">
                    <mxGeometry y="80" width="199.5" height="40" as="geometry"/>
                </mxCell>
                <mxCell id="lwJfXjp9Ip3iOw9mxEJL-10" value="1/2/2023 4:26" style="shape=partialRectangle;html=1;whiteSpace=wrap;connectable=0;overflow=hidden;fillColor=none;top=0;left=0;bottom=0;right=0;pointerEvents=1;fontSize=13;" parent="lwJfXjp9Ip3iOw9mxEJL-9" vertex="1">
                    <mxGeometry width="113" height="40" as="geometry">
                        <mxRectangle width="113" height="40" as="alternateBounds"/>
                    </mxGeometry>
                </mxCell>
                <mxCell id="lwJfXjp9Ip3iOw9mxEJL-11" value="face.com" style="shape=partialRectangle;html=1;whiteSpace=wrap;connectable=0;overflow=hidden;fillColor=none;top=0;left=0;bottom=0;right=0;pointerEvents=1;fontSize=13;" parent="lwJfXjp9Ip3iOw9mxEJL-9" vertex="1">
                    <mxGeometry x="113" width="87" height="40" as="geometry">
                        <mxRectangle width="87" height="40" as="alternateBounds"/>
                    </mxGeometry>
                </mxCell>
                <mxCell id="lwJfXjp9Ip3iOw9mxEJL-12" value="" style="shape=tableRow;horizontal=0;startSize=0;swimlaneHead=0;swimlaneBody=0;top=0;left=0;bottom=0;right=0;collapsible=0;dropTarget=0;fillColor=none;points=[[0,0.5],[1,0.5]];portConstraint=eastwest;fontSize=13;" parent="lwJfXjp9Ip3iOw9mxEJL-2" vertex="1">
                    <mxGeometry y="120" width="199.5" height="40" as="geometry"/>
                </mxCell>
                <mxCell id="lwJfXjp9Ip3iOw9mxEJL-13" value="1/2/2023 4:25" style="shape=partialRectangle;html=1;whiteSpace=wrap;connectable=0;overflow=hidden;fillColor=none;top=0;left=0;bottom=0;right=0;pointerEvents=1;fontSize=13;" parent="lwJfXjp9Ip3iOw9mxEJL-12" vertex="1">
                    <mxGeometry width="113" height="40" as="geometry">
                        <mxRectangle width="113" height="40" as="alternateBounds"/>
                    </mxGeometry>
                </mxCell>
                <mxCell id="lwJfXjp9Ip3iOw9mxEJL-14" value="prtl.com" style="shape=partialRectangle;html=1;whiteSpace=wrap;connectable=0;overflow=hidden;fillColor=none;top=0;left=0;bottom=0;right=0;pointerEvents=1;fontSize=13;" parent="lwJfXjp9Ip3iOw9mxEJL-12" vertex="1">
                    <mxGeometry x="113" width="87" height="40" as="geometry">
                        <mxRectangle width="87" height="40" as="alternateBounds"/>
                    </mxGeometry>
                </mxCell>
                <mxCell id="lwJfXjp9Ip3iOw9mxEJL-15" value="" style="shape=tableRow;horizontal=0;startSize=0;swimlaneHead=0;swimlaneBody=0;top=0;left=0;bottom=0;right=0;collapsible=0;dropTarget=0;fillColor=none;points=[[0,0.5],[1,0.5]];portConstraint=eastwest;fontSize=13;" parent="lwJfXjp9Ip3iOw9mxEJL-2" vertex="1">
                    <mxGeometry y="160" width="199.5" height="40" as="geometry"/>
                </mxCell>
                <mxCell id="lwJfXjp9Ip3iOw9mxEJL-16" value="1/2/2023 4:20" style="shape=partialRectangle;html=1;whiteSpace=wrap;connectable=0;overflow=hidden;fillColor=none;top=0;left=0;bottom=0;right=0;pointerEvents=1;fontSize=13;" parent="lwJfXjp9Ip3iOw9mxEJL-15" vertex="1">
                    <mxGeometry width="113" height="40" as="geometry">
                        <mxRectangle width="113" height="40" as="alternateBounds"/>
                    </mxGeometry>
                </mxCell>
                <mxCell id="lwJfXjp9Ip3iOw9mxEJL-17" value="wtsup.com" style="shape=partialRectangle;html=1;whiteSpace=wrap;connectable=0;overflow=hidden;fillColor=none;top=0;left=0;bottom=0;right=0;pointerEvents=1;fontSize=13;" parent="lwJfXjp9Ip3iOw9mxEJL-15" vertex="1">
                    <mxGeometry x="113" width="87" height="40" as="geometry">
                        <mxRectangle width="87" height="40" as="alternateBounds"/>
                    </mxGeometry>
                </mxCell>
                <mxCell id="lwJfXjp9Ip3iOw9mxEJL-18" value="History Main Sqlite Schema" style="text;html=1;align=center;verticalAlign=middle;resizable=0;points=[];autosize=1;strokeColor=#6F0000;fillColor=#a20025;fontSize=13;fontColor=#ffffff;" parent="lwJfXjp9Ip3iOw9mxEJL-1" vertex="1">
                    <mxGeometry x="10.75" y="1" width="178" height="28" as="geometry"/>
                </mxCell>
            </root>
        </mxGraphModel>
    </diagram>
    <diagram id="X3UpWlBPjBvYdqrejJMw" name="Search Bar">
        <mxGraphModel dx="1232" dy="890" grid="0" gridSize="10" guides="1" tooltips="1" connect="1" arrows="1" fold="1" page="0" pageScale="1" pageWidth="850" pageHeight="1100" math="0" shadow="0">
            <root>
                <mxCell id="0"/>
                <mxCell id="1" parent="0"/>
                <mxCell id="LcitWhmW_tVvsuB4gzBT-27" value="" style="rounded=1;whiteSpace=wrap;html=1;labelBackgroundColor=#6e6e0c;strokeColor=#144171;fontSize=16;fontColor=#d64343;fillColor=none;" parent="1" vertex="1">
                    <mxGeometry x="59" y="23" width="576" height="205" as="geometry"/>
                </mxCell>
                <mxCell id="LcitWhmW_tVvsuB4gzBT-2" style="edgeStyle=none;html=1;entryX=0.5;entryY=0;entryDx=0;entryDy=0;fontSize=16;exitX=0.5;exitY=1;exitDx=0;exitDy=0;" parent="1" source="fKm11uH4GjV8kjYZ2NUE-4" target="LcitWhmW_tVvsuB4gzBT-1" edge="1">
                    <mxGeometry relative="1" as="geometry">
                        <mxPoint x="144" y="-13" as="sourcePoint"/>
                    </mxGeometry>
                </mxCell>
                <mxCell id="LcitWhmW_tVvsuB4gzBT-24" style="edgeStyle=none;html=1;exitX=0.5;exitY=1;exitDx=0;exitDy=0;entryX=0.556;entryY=-0.065;entryDx=0;entryDy=0;entryPerimeter=0;fontSize=16;fontColor=#d64343;" parent="1" source="LcitWhmW_tVvsuB4gzBT-1" target="LcitWhmW_tVvsuB4gzBT-23" edge="1">
                    <mxGeometry relative="1" as="geometry"/>
                </mxCell>
                <mxCell id="LcitWhmW_tVvsuB4gzBT-1" value="is Url" style="rhombus;whiteSpace=wrap;html=1;strokeWidth=2;fillWeight=-1;hachureGap=8;fillStyle=cross-hatch;fillColor=#006600;sketch=1;fontSize=16;" parent="1" vertex="1">
                    <mxGeometry x="84" y="66" width="120" height="60" as="geometry"/>
                </mxCell>
                <mxCell id="LcitWhmW_tVvsuB4gzBT-29" style="edgeStyle=none;html=1;exitX=0.5;exitY=1;exitDx=0;exitDy=0;entryX=0.5;entryY=0;entryDx=0;entryDy=0;fontSize=16;fontColor=#ffffff;" parent="1" source="LcitWhmW_tVvsuB4gzBT-5" target="LcitWhmW_tVvsuB4gzBT-28" edge="1">
                    <mxGeometry relative="1" as="geometry"/>
                </mxCell>
                <mxCell id="LcitWhmW_tVvsuB4gzBT-5" value="DNS Resolution&lt;br&gt;Resolved" style="rhombus;whiteSpace=wrap;html=1;strokeWidth=2;fillWeight=-1;hachureGap=8;fillStyle=cross-hatch;fillColor=#006600;sketch=1;fontSize=16;" parent="1" vertex="1">
                    <mxGeometry x="51" y="264" width="181" height="104" as="geometry"/>
                </mxCell>
                <mxCell id="LcitWhmW_tVvsuB4gzBT-11" value="Show typo Error msg" style="rounded=1;whiteSpace=wrap;html=1;strokeWidth=2;fillWeight=4;hachureGap=8;hachureAngle=45;fillColor=#e51400;sketch=1;fontSize=16;strokeColor=#B20000;fontStyle=1;fontColor=#ffffff;" parent="1" vertex="1">
                    <mxGeometry x="360" y="286" width="120" height="60" as="geometry"/>
                </mxCell>
                <mxCell id="LcitWhmW_tVvsuB4gzBT-14" value="" style="endArrow=classic;html=1;fontSize=16;fontColor=#FFFFFF;exitX=1;exitY=0.5;exitDx=0;exitDy=0;entryX=0;entryY=0.5;entryDx=0;entryDy=0;" parent="1" source="LcitWhmW_tVvsuB4gzBT-1" target="LcitWhmW_tVvsuB4gzBT-17" edge="1">
                    <mxGeometry relative="1" as="geometry">
                        <mxPoint x="232" y="98" as="sourcePoint"/>
                        <mxPoint x="365" y="94" as="targetPoint"/>
                    </mxGeometry>
                </mxCell>
                <mxCell id="LcitWhmW_tVvsuB4gzBT-15" value="No" style="edgeLabel;resizable=0;html=1;align=center;verticalAlign=middle;strokeColor=default;fontSize=16;fontColor=#FFFFFF;fillColor=default;" parent="LcitWhmW_tVvsuB4gzBT-14" connectable="0" vertex="1">
                    <mxGeometry relative="1" as="geometry"/>
                </mxCell>
                <mxCell id="LcitWhmW_tVvsuB4gzBT-25" style="edgeStyle=none;html=1;exitX=0.5;exitY=1;exitDx=0;exitDy=0;entryX=1.111;entryY=0.484;entryDx=0;entryDy=0;entryPerimeter=0;fontSize=16;fontColor=#d64343;" parent="1" source="LcitWhmW_tVvsuB4gzBT-17" target="LcitWhmW_tVvsuB4gzBT-23" edge="1">
                    <mxGeometry relative="1" as="geometry">
                        <Array as="points">
                            <mxPoint x="472" y="195"/>
                        </Array>
                    </mxGeometry>
                </mxCell>
                <mxCell id="MP83vbHvIVhxMpImgatC-25" style="edgeStyle=none;html=1;entryX=0.532;entryY=1.068;entryDx=0;entryDy=0;entryPerimeter=0;fontSize=16;fontColor=#FCF7F7;startArrow=none;" parent="1" source="MP83vbHvIVhxMpImgatC-26" target="MP83vbHvIVhxMpImgatC-15" edge="1">
                    <mxGeometry relative="1" as="geometry">
                        <Array as="points">
                            <mxPoint x="906" y="96"/>
                        </Array>
                    </mxGeometry>
                </mxCell>
                <mxCell id="LcitWhmW_tVvsuB4gzBT-17" value="&lt;span style=&quot;font-weight: 700;&quot;&gt;SearchQueryHandling Generate url On The basis of Seleceted Search Engine&amp;nbsp;&lt;br&gt;&lt;/span&gt;" style="rounded=1;whiteSpace=wrap;html=1;strokeWidth=2;fillWeight=4;hachureGap=8;hachureAngle=45;fillColor=none;sketch=1;strokeColor=default;fontSize=16;fontColor=#FFFFFF;" parent="1" vertex="1">
                    <mxGeometry x="351" y="52" width="241" height="88" as="geometry"/>
                </mxCell>
                <mxCell id="LcitWhmW_tVvsuB4gzBT-18" value="" style="endArrow=classic;html=1;fontSize=16;fontColor=#FFFFFF;exitX=1;exitY=0.5;exitDx=0;exitDy=0;entryX=0;entryY=0.5;entryDx=0;entryDy=0;" parent="1" source="LcitWhmW_tVvsuB4gzBT-5" target="LcitWhmW_tVvsuB4gzBT-11" edge="1">
                    <mxGeometry relative="1" as="geometry">
                        <mxPoint x="654" y="401" as="sourcePoint"/>
                        <mxPoint x="754" y="401" as="targetPoint"/>
                    </mxGeometry>
                </mxCell>
                <mxCell id="LcitWhmW_tVvsuB4gzBT-19" value="No" style="edgeLabel;resizable=0;html=1;align=center;verticalAlign=middle;labelBackgroundColor=default;strokeColor=default;fontSize=16;fontColor=#FFFFFF;fillColor=default;" parent="LcitWhmW_tVvsuB4gzBT-18" connectable="0" vertex="1">
                    <mxGeometry relative="1" as="geometry"/>
                </mxCell>
                <mxCell id="LcitWhmW_tVvsuB4gzBT-26" style="edgeStyle=none;html=1;fontSize=16;fontColor=#d64343;entryX=0.5;entryY=0;entryDx=0;entryDy=0;" parent="1" source="LcitWhmW_tVvsuB4gzBT-23" target="LcitWhmW_tVvsuB4gzBT-5" edge="1">
                    <mxGeometry relative="1" as="geometry">
                        <mxPoint x="142" y="274" as="targetPoint"/>
                    </mxGeometry>
                </mxCell>
                <mxCell id="LcitWhmW_tVvsuB4gzBT-23" value="url" style="text;html=1;align=center;verticalAlign=middle;resizable=0;points=[];autosize=1;strokeColor=none;fillColor=none;fontSize=16;fontColor=#d64343;" parent="1" vertex="1">
                    <mxGeometry x="124" y="180" width="36" height="31" as="geometry"/>
                </mxCell>
                <mxCell id="LcitWhmW_tVvsuB4gzBT-28" value="Request url" style="rounded=1;whiteSpace=wrap;html=1;strokeWidth=2;fillWeight=4;hachureGap=8;hachureAngle=45;fillColor=none;sketch=1;labelBackgroundColor=default;strokeColor=default;fontSize=16;fontColor=#ffffff;" parent="1" vertex="1">
                    <mxGeometry x="94" y="408" width="95" height="37" as="geometry"/>
                </mxCell>
                <mxCell id="fKm11uH4GjV8kjYZ2NUE-3" style="edgeStyle=none;html=1;fontSize=16;fontColor=#ffffff;entryX=0;entryY=0.5;entryDx=0;entryDy=0;" parent="1" source="fKm11uH4GjV8kjYZ2NUE-1" target="fKm11uH4GjV8kjYZ2NUE-4" edge="1">
                    <mxGeometry relative="1" as="geometry">
                        <mxPoint x="142" y="-137" as="targetPoint"/>
                        <Array as="points">
                            <mxPoint x="50" y="-34"/>
                        </Array>
                    </mxGeometry>
                </mxCell>
                <mxCell id="fKm11uH4GjV8kjYZ2NUE-1" value="Address Bar" style="text;html=1;align=center;verticalAlign=middle;resizable=0;points=[];autosize=1;strokeColor=#314354;fillColor=#647687;fontSize=16;fontColor=#ffffff;" parent="1" vertex="1">
                    <mxGeometry x="-3" y="-195" width="106" height="31" as="geometry"/>
                </mxCell>
                <mxCell id="fKm11uH4GjV8kjYZ2NUE-4" value="Textual Data" style="text;strokeColor=none;fillColor=none;html=1;fontSize=16;fontStyle=0;verticalAlign=middle;align=center;labelBackgroundColor=default;fontColor=#ffffff;" parent="1" vertex="1">
                    <mxGeometry x="94" y="-54" width="100" height="40" as="geometry"/>
                </mxCell>
                <mxCell id="fKm11uH4GjV8kjYZ2NUE-8" style="edgeStyle=none;html=1;entryX=0.5;entryY=0;entryDx=0;entryDy=0;fontSize=16;fontColor=#ffffff;" parent="1" source="fKm11uH4GjV8kjYZ2NUE-5" target="fKm11uH4GjV8kjYZ2NUE-7" edge="1">
                    <mxGeometry relative="1" as="geometry"/>
                </mxCell>
                <mxCell id="fKm11uH4GjV8kjYZ2NUE-5" value="Mic input" style="text;html=1;align=center;verticalAlign=middle;resizable=0;points=[];autosize=1;strokeColor=#314354;fillColor=#647687;fontSize=16;fontColor=#ffffff;" parent="1" vertex="1">
                    <mxGeometry x="235.5" y="-198" width="82" height="31" as="geometry"/>
                </mxCell>
                <mxCell id="fKm11uH4GjV8kjYZ2NUE-9" style="edgeStyle=none;html=1;exitX=0.5;exitY=1;exitDx=0;exitDy=0;entryX=1;entryY=0.5;entryDx=0;entryDy=0;fontSize=16;fontColor=#ffffff;" parent="1" source="fKm11uH4GjV8kjYZ2NUE-7" target="fKm11uH4GjV8kjYZ2NUE-4" edge="1">
                    <mxGeometry relative="1" as="geometry">
                        <Array as="points">
                            <mxPoint x="277" y="-34"/>
                        </Array>
                    </mxGeometry>
                </mxCell>
                <mxCell id="fKm11uH4GjV8kjYZ2NUE-7" value="Speach to text Engine" style="text;strokeColor=#3A5431;fillColor=#6d8764;html=1;fontSize=16;fontStyle=0;verticalAlign=middle;align=center;labelBackgroundColor=none;fontColor=#ffffff;autosize=1;" parent="1" vertex="1">
                    <mxGeometry x="190" y="-113" width="175" height="31" as="geometry"/>
                </mxCell>
                <mxCell id="fKm11uH4GjV8kjYZ2NUE-12" value="Url parser" style="text;html=1;align=center;verticalAlign=middle;resizable=0;points=[];autosize=1;strokeColor=none;fillColor=none;fontSize=16;fontColor=#0764ab;" parent="1" vertex="1">
                    <mxGeometry x="500" y="-8" width="88" height="31" as="geometry"/>
                </mxCell>
                <mxCell id="fKm11uH4GjV8kjYZ2NUE-13" value="&lt;font color=&quot;#a9ab07&quot;&gt;TODO :How Request are&lt;br&gt;performed and pages &lt;br&gt;are rendered&lt;/font&gt;" style="text;html=1;align=center;verticalAlign=middle;resizable=0;points=[];autosize=1;strokeColor=none;fillColor=none;fontSize=16;fontColor=#0764ab;" parent="1" vertex="1">
                    <mxGeometry x="322" y="403" width="196" height="70" as="geometry"/>
                </mxCell>
                <mxCell id="MP83vbHvIVhxMpImgatC-5" value="" style="shape=table;startSize=0;container=1;collapsible=0;childLayout=tableLayout;labelBackgroundColor=none;strokeColor=#144171;fontSize=16;fontColor=#FCF7F7;fillColor=default;" parent="1" vertex="1">
                    <mxGeometry x="485" y="-321" width="790.5263157894735" height="200" as="geometry"/>
                </mxCell>
                <mxCell id="MP83vbHvIVhxMpImgatC-21" style="shape=tableRow;horizontal=0;startSize=0;swimlaneHead=0;swimlaneBody=0;top=0;left=0;bottom=0;right=0;collapsible=0;dropTarget=0;fillColor=none;points=[[0,0.5],[1,0.5]];portConstraint=eastwest;labelBackgroundColor=none;strokeColor=#144171;fontSize=16;fontColor=#FCF7F7;" parent="MP83vbHvIVhxMpImgatC-5" vertex="1">
                    <mxGeometry width="790.5263157894735" height="40" as="geometry"/>
                </mxCell>
                <mxCell id="MP83vbHvIVhxMpImgatC-22" value="Search Engine" style="shape=partialRectangle;html=1;whiteSpace=wrap;connectable=0;overflow=hidden;fillColor=none;top=0;left=0;bottom=0;right=0;pointerEvents=1;labelBackgroundColor=none;strokeColor=#144171;fontSize=16;fontColor=#FCF7F7;" parent="MP83vbHvIVhxMpImgatC-21" vertex="1">
                    <mxGeometry width="144" height="40" as="geometry">
                        <mxRectangle width="144" height="40" as="alternateBounds"/>
                    </mxGeometry>
                </mxCell>
                <mxCell id="MP83vbHvIVhxMpImgatC-23" value="Search Query for arduino" style="shape=partialRectangle;html=1;whiteSpace=wrap;connectable=0;overflow=hidden;fillColor=none;top=0;left=0;bottom=0;right=0;pointerEvents=1;labelBackgroundColor=none;strokeColor=#144171;fontSize=16;fontColor=#FCF7F7;" parent="MP83vbHvIVhxMpImgatC-21" vertex="1">
                    <mxGeometry x="144" width="647" height="40" as="geometry">
                        <mxRectangle width="647" height="40" as="alternateBounds"/>
                    </mxGeometry>
                </mxCell>
                <mxCell id="MP83vbHvIVhxMpImgatC-6" value="" style="shape=tableRow;horizontal=0;startSize=0;swimlaneHead=0;swimlaneBody=0;top=0;left=0;bottom=0;right=0;collapsible=0;dropTarget=0;fillColor=none;points=[[0,0.5],[1,0.5]];portConstraint=eastwest;labelBackgroundColor=none;strokeColor=#144171;fontSize=16;fontColor=#FCF7F7;" parent="MP83vbHvIVhxMpImgatC-5" vertex="1">
                    <mxGeometry y="40" width="790.5263157894735" height="40" as="geometry"/>
                </mxCell>
                <mxCell id="MP83vbHvIVhxMpImgatC-7" value="Google" style="shape=partialRectangle;html=1;whiteSpace=wrap;connectable=0;overflow=hidden;fillColor=none;top=0;left=0;bottom=0;right=0;pointerEvents=1;labelBackgroundColor=none;strokeColor=#144171;fontSize=16;fontColor=#FCF7F7;" parent="MP83vbHvIVhxMpImgatC-6" vertex="1">
                    <mxGeometry width="144" height="40" as="geometry">
                        <mxRectangle width="144" height="40" as="alternateBounds"/>
                    </mxGeometry>
                </mxCell>
                <UserObject label="https://www.google.com/search?q=arduino&amp;amp;oq=arduino&amp;amp;sourceid=chrome&amp;amp;ie=UTF-8" link="https://www.google.com/search?q=arduino&amp;oq=arduino&amp;gs_lcrp=EgZjaHJvbWUqDwgAEEUYOxiDARixAxiABDIPCAAQRRg7GIMBGLEDGIAEMgoIARAAGLEDGIAEMg0IAhAAGIMBGLEDGIAEMg0IAxAAGIMBGLEDGIAEMg0IBBAAGIMBGLEDGIAEMgoIBRAAGLEDGIAEMhAIBhAuGIMBGLEDGIAEGOUEMg0IBxAAGIMBGLEDGIAEMg0ICBAAGIMBGLEDGIAEMg0ICRAAGIMBGLEDGIoF0gEINjA2MmowajGoAgCwAgA&amp;sourceid=chrome&amp;ie=UTF-8" id="MP83vbHvIVhxMpImgatC-8">
                    <mxCell style="shape=partialRectangle;html=1;whiteSpace=wrap;connectable=0;overflow=hidden;fillColor=none;top=0;left=0;bottom=0;right=0;pointerEvents=1;labelBackgroundColor=none;strokeColor=#144171;fontSize=16;fontColor=#FCF7F7;expand=1;recursiveResize=1;autosize=0;fixedWidth=1;align=left;" parent="MP83vbHvIVhxMpImgatC-6" vertex="1">
                        <mxGeometry x="144" width="647" height="40" as="geometry">
                            <mxRectangle width="647" height="40" as="alternateBounds"/>
                        </mxGeometry>
                    </mxCell>
                </UserObject>
                <mxCell id="MP83vbHvIVhxMpImgatC-9" value="" style="shape=tableRow;horizontal=0;startSize=0;swimlaneHead=0;swimlaneBody=0;top=0;left=0;bottom=0;right=0;collapsible=0;dropTarget=0;fillColor=none;points=[[0,0.5],[1,0.5]];portConstraint=eastwest;labelBackgroundColor=none;strokeColor=#144171;fontSize=16;fontColor=#FCF7F7;" parent="MP83vbHvIVhxMpImgatC-5" vertex="1">
                    <mxGeometry y="80" width="790.5263157894735" height="40" as="geometry"/>
                </mxCell>
                <mxCell id="MP83vbHvIVhxMpImgatC-10" value="Yahoo" style="shape=partialRectangle;html=1;whiteSpace=wrap;connectable=0;overflow=hidden;fillColor=none;top=0;left=0;bottom=0;right=0;pointerEvents=1;labelBackgroundColor=none;strokeColor=#144171;fontSize=16;fontColor=#FCF7F7;" parent="MP83vbHvIVhxMpImgatC-9" vertex="1">
                    <mxGeometry width="144" height="40" as="geometry">
                        <mxRectangle width="144" height="40" as="alternateBounds"/>
                    </mxGeometry>
                </mxCell>
                <mxCell id="MP83vbHvIVhxMpImgatC-11" value="https://in.search.yahoo.com/search?ei=UTF-8&amp;amp;fr=crmas&amp;amp;p=arduino" style="shape=partialRectangle;html=1;whiteSpace=wrap;connectable=0;overflow=hidden;fillColor=none;top=0;left=0;bottom=0;right=0;pointerEvents=1;labelBackgroundColor=none;strokeColor=#144171;fontSize=16;fontColor=#FCF7F7;align=left;" parent="MP83vbHvIVhxMpImgatC-9" vertex="1">
                    <mxGeometry x="144" width="647" height="40" as="geometry">
                        <mxRectangle width="647" height="40" as="alternateBounds"/>
                    </mxGeometry>
                </mxCell>
                <mxCell id="MP83vbHvIVhxMpImgatC-12" value="" style="shape=tableRow;horizontal=0;startSize=0;swimlaneHead=0;swimlaneBody=0;top=0;left=0;bottom=0;right=0;collapsible=0;dropTarget=0;fillColor=none;points=[[0,0.5],[1,0.5]];portConstraint=eastwest;labelBackgroundColor=none;strokeColor=#144171;fontSize=16;fontColor=#FCF7F7;" parent="MP83vbHvIVhxMpImgatC-5" vertex="1">
                    <mxGeometry y="120" width="790.5263157894735" height="40" as="geometry"/>
                </mxCell>
                <mxCell id="MP83vbHvIVhxMpImgatC-13" value="DuckDuckGo" style="shape=partialRectangle;html=1;whiteSpace=wrap;connectable=0;overflow=hidden;fillColor=none;top=0;left=0;bottom=0;right=0;pointerEvents=1;labelBackgroundColor=none;strokeColor=#144171;fontSize=16;fontColor=#FCF7F7;" parent="MP83vbHvIVhxMpImgatC-12" vertex="1">
                    <mxGeometry width="144" height="40" as="geometry">
                        <mxRectangle width="144" height="40" as="alternateBounds"/>
                    </mxGeometry>
                </mxCell>
                <mxCell id="MP83vbHvIVhxMpImgatC-14" value="https://duckduckgo.com/?q=arduino&amp;amp;ia=web" style="shape=partialRectangle;html=1;whiteSpace=wrap;connectable=0;overflow=hidden;fillColor=none;top=0;left=0;bottom=0;right=0;pointerEvents=1;labelBackgroundColor=none;strokeColor=#144171;fontSize=16;fontColor=#FCF7F7;align=left;" parent="MP83vbHvIVhxMpImgatC-12" vertex="1">
                    <mxGeometry x="144" width="647" height="40" as="geometry">
                        <mxRectangle width="647" height="40" as="alternateBounds"/>
                    </mxGeometry>
                </mxCell>
                <mxCell id="MP83vbHvIVhxMpImgatC-15" value="" style="shape=tableRow;horizontal=0;startSize=0;swimlaneHead=0;swimlaneBody=0;top=0;left=0;bottom=0;right=0;collapsible=0;dropTarget=0;fillColor=none;points=[[0,0.5],[1,0.5]];portConstraint=eastwest;labelBackgroundColor=none;strokeColor=#144171;fontSize=16;fontColor=#FCF7F7;" parent="MP83vbHvIVhxMpImgatC-5" vertex="1">
                    <mxGeometry y="160" width="790.5263157894735" height="40" as="geometry"/>
                </mxCell>
                <mxCell id="MP83vbHvIVhxMpImgatC-16" value="Bing" style="shape=partialRectangle;html=1;whiteSpace=wrap;connectable=0;overflow=hidden;fillColor=none;top=0;left=0;bottom=0;right=0;pointerEvents=1;labelBackgroundColor=none;strokeColor=#144171;fontSize=16;fontColor=#FCF7F7;" parent="MP83vbHvIVhxMpImgatC-15" vertex="1">
                    <mxGeometry width="144" height="40" as="geometry">
                        <mxRectangle width="144" height="40" as="alternateBounds"/>
                    </mxGeometry>
                </mxCell>
                <mxCell id="MP83vbHvIVhxMpImgatC-17" value="https://www.bing.com/search?q=arduino&amp;amp;PC=U316&amp;amp;FORM=CHROMN" style="shape=partialRectangle;html=1;whiteSpace=wrap;connectable=0;overflow=hidden;fillColor=none;top=0;left=0;bottom=0;right=0;pointerEvents=1;labelBackgroundColor=none;strokeColor=#144171;fontSize=16;fontColor=#FCF7F7;align=left;" parent="MP83vbHvIVhxMpImgatC-15" vertex="1">
                    <mxGeometry x="144" width="647" height="40" as="geometry">
                        <mxRectangle width="647" height="40" as="alternateBounds"/>
                    </mxGeometry>
                </mxCell>
                <mxCell id="MP83vbHvIVhxMpImgatC-27" value="" style="edgeStyle=none;html=1;fontSize=16;fontColor=#FCF7F7;endArrow=none;" parent="1" source="LcitWhmW_tVvsuB4gzBT-17" target="MP83vbHvIVhxMpImgatC-26" edge="1">
                    <mxGeometry relative="1" as="geometry">
                        <mxPoint x="592" y="96.00000000000023" as="sourcePoint"/>
                        <mxPoint x="905.56" y="-118.2800000000002" as="targetPoint"/>
                        <Array as="points"/>
                    </mxGeometry>
                </mxCell>
                <mxCell id="MP83vbHvIVhxMpImgatC-26" value="Example" style="text;html=1;align=center;verticalAlign=middle;resizable=0;points=[];autosize=1;strokeColor=none;fillColor=none;fontSize=16;fontColor=#FCF7F7;" parent="1" vertex="1">
                    <mxGeometry x="722" y="84" width="80" height="31" as="geometry"/>
                </mxCell>
            </root>
        </mxGraphModel>
    </diagram>
    <diagram id="jaXE45-p0ZxqVehZWBuq" name="Request C to S">
        <mxGraphModel dx="832" dy="490" grid="0" gridSize="10" guides="1" tooltips="1" connect="1" arrows="1" fold="1" page="0" pageScale="1" pageWidth="850" pageHeight="1100" math="0" shadow="0">
            <root>
                <mxCell id="0"/>
                <mxCell id="1" parent="0"/>
            </root>
        </mxGraphModel>
    </diagram>
</mxfile>